<svg width="256" height="256" viewBox="0 0 256 256" fill="none" xmlns="http://www.w3.org/2000/svg">
<g clip-path="url(#clip0_4450_7119)">
<circle cx="128" cy="128" r="126.5" fill="black" stroke="url(#paint0_linear_4450_7119)" stroke-width="3"/>
<circle cx="127.5" cy="127.5" r="119.5" fill="url(#paint1_linear_4450_7119)" fill-opacity="0.7"/>
<ellipse cx="128" cy="68" rx="86" ry="58" fill="url(#paint2_linear_4450_7119)" fill-opacity="0.67"/>
<path d="M53.5115 147H32.341L42.1209 88.0909H62.8886C68.8141 88.0909 73.7327 89.299 77.6447 91.7152C81.5758 94.1314 84.3467 97.5927 85.9575 102.099C87.5683 106.586 87.856 111.946 86.8204 118.178C85.8233 124.2 83.8386 129.368 80.8663 133.682C77.894 137.978 74.0875 141.276 69.4469 143.577C64.8062 145.859 59.4945 147 53.5115 147ZM46.5793 136.328H54.2306C57.9316 136.328 61.1724 135.638 63.9529 134.257C66.7526 132.877 69.0442 130.748 70.8275 127.872C72.6301 124.995 73.9053 121.314 74.6532 116.826C75.3627 112.569 75.3148 109.118 74.5094 106.471C73.7231 103.806 72.1986 101.859 69.9359 100.632C67.6731 99.3857 64.7008 98.7624 61.019 98.7624H52.8212L46.5793 136.328ZM98.1032 147H84.7566L114.873 88.0909H130.923L141.451 147H128.104L120.942 101.553H120.482L98.1032 147ZM101.152 123.845H132.678L131.009 133.567H99.4839L101.152 123.845ZM155.869 147L148.793 88.0909H162.398L165.39 129.022H165.879L183.396 88.0909H195.046L199.015 129.109H199.533L216.044 88.0909H229.649L203.013 147H190.875L186.1 108.485H185.64L168.007 147H155.869Z" fill="white"/>
<path d="M67.0452 180.394C64.9692 180.394 63.2611 179.956 61.9209 179.08C60.5895 178.196 59.6566 176.969 59.1223 175.401C58.5967 173.833 58.5047 172.029 58.8464 169.988C59.1792 167.921 59.8756 166.107 60.9355 164.548C61.9954 162.98 63.34 161.758 64.9692 160.882C66.6072 159.998 68.4467 159.555 70.4877 159.555C72.2483 159.555 73.7375 159.875 74.955 160.515C76.1726 161.154 77.0661 162.052 77.6354 163.208C78.2048 164.364 78.3975 165.722 78.2135 167.281H72.9447C72.9535 166.283 72.6951 165.472 72.1695 164.85C71.6439 164.229 70.8731 163.918 69.857 163.918C68.9811 163.918 68.1752 164.154 67.4394 164.627C66.7124 165.091 66.0948 165.77 65.5868 166.664C65.0875 167.557 64.7371 168.639 64.5356 169.909C64.3254 171.197 64.321 172.292 64.5225 173.194C64.724 174.096 65.1094 174.784 65.6787 175.257C66.2481 175.73 66.9664 175.966 67.8336 175.966C68.4818 175.966 69.0818 175.835 69.6336 175.572C70.1942 175.309 70.6848 174.928 71.1052 174.429C71.5257 173.921 71.8498 173.312 72.0775 172.603H77.3595C77.0004 174.153 76.3478 175.511 75.4018 176.676C74.4645 177.841 73.2863 178.752 71.8673 179.409C70.4483 180.066 68.8409 180.394 67.0452 180.394ZM89.9499 180.394C87.8826 180.394 86.1702 179.974 84.8124 179.133C83.4547 178.283 82.4999 177.083 81.9481 175.533C81.405 173.973 81.313 172.13 81.6722 170.001C82.0226 167.925 82.7277 166.103 83.7876 164.535C84.8562 162.967 86.1964 161.745 87.8082 160.869C89.4199 159.993 91.2156 159.555 93.1953 159.555C94.5267 159.555 95.7311 159.77 96.8085 160.199C97.8947 160.62 98.7969 161.259 99.5152 162.118C100.233 162.967 100.724 164.031 100.987 165.31C101.258 166.589 101.254 168.087 100.974 169.804L100.724 171.341H83.6956L84.2343 167.873H96.007C96.1384 167.067 96.0859 166.353 95.8494 165.731C95.6129 165.109 95.2187 164.623 94.6669 164.272C94.115 163.913 93.4361 163.734 92.6303 163.734C91.8069 163.734 91.0361 163.935 90.3178 164.338C89.5995 164.741 88.9951 165.271 88.5046 165.928C88.0228 166.576 87.7118 167.281 87.5717 168.043L86.9541 171.486C86.7789 172.546 86.814 173.426 87.0593 174.127C87.3133 174.828 87.7512 175.353 88.3732 175.703C88.9951 176.045 89.7834 176.216 90.7382 176.216C91.3602 176.216 91.9427 176.128 92.4857 175.953C93.0376 175.778 93.5281 175.52 93.9573 175.178C94.3865 174.828 94.7369 174.394 95.0085 173.877L100.12 174.219C99.6466 175.463 98.9283 176.549 97.9648 177.477C97.0012 178.397 95.8406 179.115 94.4829 179.632C93.1339 180.14 91.6229 180.394 89.9499 180.394ZM102.842 187.568L107.494 159.818H113.012L112.447 163.208H112.697C113.03 162.665 113.472 162.113 114.024 161.553C114.585 160.983 115.281 160.51 116.113 160.134C116.945 159.748 117.922 159.555 119.043 159.555C120.523 159.555 121.815 159.941 122.919 160.712C124.023 161.474 124.82 162.626 125.31 164.167C125.81 165.7 125.867 167.623 125.481 169.935C125.113 172.187 124.435 174.087 123.445 175.638C122.464 177.179 121.286 178.349 119.91 179.146C118.544 179.934 117.094 180.328 115.561 180.328C114.475 180.328 113.582 180.149 112.881 179.79C112.189 179.431 111.65 178.98 111.265 178.436C110.879 177.885 110.608 177.328 110.45 176.768H110.24L108.453 187.568H102.842ZM111.291 169.909C111.098 171.109 111.089 172.156 111.265 173.049C111.449 173.943 111.817 174.639 112.368 175.138C112.92 175.629 113.647 175.874 114.549 175.874C115.46 175.874 116.271 175.625 116.98 175.125C117.69 174.617 118.281 173.917 118.754 173.023C119.227 172.121 119.564 171.083 119.766 169.909C119.95 168.744 119.954 167.719 119.779 166.835C119.604 165.95 119.245 165.258 118.701 164.759C118.158 164.259 117.423 164.01 116.494 164.01C115.592 164.01 114.782 164.25 114.063 164.732C113.354 165.214 112.763 165.897 112.29 166.782C111.817 167.667 111.484 168.709 111.291 169.909ZM142.723 159.818L142.027 164.023H129.86L130.569 159.818H142.723ZM134.117 154.983H139.714L136.587 173.798C136.499 174.315 136.513 174.718 136.626 175.007C136.74 175.287 136.929 175.484 137.191 175.598C137.463 175.712 137.787 175.769 138.164 175.769C138.426 175.769 138.694 175.747 138.965 175.703C139.237 175.651 139.443 175.612 139.583 175.585L139.793 179.75C139.478 179.847 139.053 179.952 138.518 180.066C137.993 180.18 137.371 180.25 136.653 180.276C135.286 180.328 134.13 180.149 133.184 179.737C132.238 179.317 131.559 178.673 131.147 177.806C130.736 176.939 130.648 175.848 130.885 174.534L134.117 154.983ZM144.115 180L147.479 159.818H153.076L149.713 180H144.115ZM150.856 157.19C150.024 157.19 149.336 156.914 148.793 156.363C148.259 155.802 148.04 155.136 148.136 154.365C148.232 153.577 148.609 152.911 149.266 152.368C149.923 151.816 150.668 151.54 151.5 151.54C152.332 151.54 153.011 151.816 153.536 152.368C154.062 152.911 154.281 153.577 154.193 154.365C154.106 155.136 153.733 155.802 153.076 156.363C152.428 156.914 151.688 157.19 150.856 157.19ZM164.451 180.394C162.393 180.394 160.689 179.956 159.34 179.08C157.991 178.196 157.041 176.969 156.489 175.401C155.946 173.825 155.845 171.989 156.187 169.896C156.52 167.829 157.212 166.02 158.263 164.469C159.314 162.919 160.65 161.715 162.27 160.856C163.891 159.989 165.717 159.555 167.749 159.555C169.799 159.555 171.498 159.998 172.847 160.882C174.196 161.758 175.147 162.985 175.699 164.561C176.25 166.138 176.356 167.973 176.014 170.067C175.672 172.125 174.972 173.93 173.912 175.48C172.852 177.031 171.516 178.239 169.904 179.107C168.292 179.965 166.475 180.394 164.451 180.394ZM165.003 176.058C165.949 176.058 166.786 175.791 167.513 175.257C168.249 174.714 168.857 173.978 169.339 173.049C169.83 172.112 170.171 171.052 170.364 169.87C170.557 168.705 170.57 167.671 170.403 166.769C170.237 165.858 169.887 165.14 169.352 164.614C168.827 164.088 168.104 163.826 167.184 163.826C166.238 163.826 165.397 164.097 164.662 164.64C163.926 165.175 163.317 165.91 162.835 166.848C162.354 167.785 162.016 168.849 161.824 170.04C161.64 171.197 161.626 172.23 161.784 173.141C161.942 174.044 162.288 174.757 162.822 175.283C163.356 175.8 164.084 176.058 165.003 176.058ZM186.676 168.332L184.732 180H179.147L182.511 159.818H187.832L187.254 163.379H187.478C188.117 162.196 189.019 161.263 190.184 160.58C191.358 159.897 192.694 159.555 194.192 159.555C195.593 159.555 196.763 159.862 197.7 160.475C198.646 161.088 199.312 161.96 199.697 163.09C200.091 164.22 200.157 165.573 199.894 167.15L197.739 180H192.142L194.126 168.148C194.328 166.913 194.17 165.95 193.653 165.258C193.145 164.557 192.326 164.207 191.196 164.207C190.443 164.207 189.751 164.369 189.12 164.693C188.489 165.017 187.959 165.49 187.53 166.112C187.11 166.725 186.825 167.465 186.676 168.332Z" fill="white"/>
</g>
<defs>
<linearGradient id="paint0_linear_4450_7119" x1="-4.06493e-06" y1="50.5" x2="243" y2="211.5" gradientUnits="userSpaceOnUse">
<stop stop-color="white"/>
<stop offset="0.442308"/>
<stop offset="1" stop-color="white"/>
</linearGradient>
<linearGradient id="paint1_linear_4450_7119" x1="127.5" y1="8" x2="127.5" y2="247" gradientUnits="userSpaceOnUse">
<stop stop-opacity="0"/>
<stop offset="1" stop-color="white"/>
</linearGradient>
<linearGradient id="paint2_linear_4450_7119" x1="128" y1="10" x2="128" y2="126" gradientUnits="userSpaceOnUse">
<stop stop-color="white"/>
<stop offset="1" stop-color="#737373" stop-opacity="0"/>
</linearGradient>
<clipPath id="clip0_4450_7119">
<rect width="256" height="256" fill="white"/>
</clipPath>
</defs>
</svg>
