<svg width="128" height="128" viewBox="0 0 128 128" fill="none" xmlns="http://www.w3.org/2000/svg">
<rect x="0.5" y="0.5" width="127" height="127" rx="4.5" fill="url(#paint0_linear_2580_310)" stroke="white"/>
<path d="M23 92.1242V34H57.7276V42.6788H32.7523V57.807H54.9525V66.4062H32.7523V83.4453H57.7276V92.1242H23Z" fill="url(#paint1_linear_2580_310)"/>
<path d="M84.9712 93C79.104 93 74.4525 91.381 71.0167 88.143C67.6338 84.852 65.9424 80.4462 65.9424 74.9258H75.8532C75.8532 77.8453 76.6725 80.1278 78.3111 81.7733C79.9497 83.4188 82.1697 84.2416 84.9712 84.2416C87.7727 84.2416 89.9927 83.4453 91.6313 81.8529C93.2699 80.2074 94.0892 77.9249 94.0892 75.0054V43.2362H80.6104V34H104V75.0054C104 80.5789 102.282 84.9847 98.8464 88.2227C95.4635 91.4076 90.8384 93 84.9712 93Z" fill="url(#paint2_linear_2580_310)"/>
<defs>
<linearGradient id="paint0_linear_2580_310" x1="64.0968" y1="-51.5821" x2="63.0498" y2="127.994" gradientUnits="userSpaceOnUse">
<stop stop-color="#040105"/>
<stop offset="1" stop-color="#430056"/>
</linearGradient>
<linearGradient id="paint1_linear_2580_310" x1="63.5644" y1="10.4339" x2="63.5644" y2="105.258" gradientUnits="userSpaceOnUse">
<stop stop-color="#DB00FF"/>
<stop offset="1" stop-color="#8F00FF"/>
</linearGradient>
<linearGradient id="paint2_linear_2580_310" x1="63.5644" y1="10.4339" x2="63.5644" y2="105.258" gradientUnits="userSpaceOnUse">
<stop stop-color="#DB00FF"/>
<stop offset="1" stop-color="#8F00FF"/>
</linearGradient>
</defs>
</svg>
